# xmcd
#
# Track frame offsets:
#	182
#	11790
#	23215
#	34335
#	44707
#	56165
#	67652
#	77717
#	89002
#	100202
#	110562
#	121537
#	130912
#	141292
#	151765
#	166432
#
# Disc length: 2380 seconds
#
# Revision: 1
# Processed by: cddbd v1.4PL0 Copyright (c) Steve Scherf et al.
# Submitted via: audiograbber 1.81.02
#
DISCID=d7094a10
DTITLE=Patsy Cline and Loretta Lynn - Queens Of Country
DYEAR=1900
DGENRE=Country
TTITLE0=Walking After Midnight
TTITLE1=Just Out Of Reach
TTITLE2=Stop The World (And Let Me Off)
TTITLE3=Walkin' Dream
TTITLE4=Crazy Dreams
TTITLE5=The Heart You Break May Be Your Own
TTITLE6=Turn The Cards Slowly
TTITLE7=You're A Stranger In My Arms
TTITLE8=Hey Loretta
TTITLE9=You're Lookin' At Country
TTITLE10=Spring Fever
TTITLE11=Fist City
TTITLE12=Somebody Somewhere
TTITLE13=Out Of My Head And Back In My Bed
TTITLE14=Coal Miner's Daughter
TTITLE15=Me And Bobby Mcgee
EXTD=
EXTT0=
EXTT1=
EXTT2=
EXTT3=
EXTT4=
EXTT5=
EXTT6=
EXTT7=
EXTT8=
EXTT9=
EXTT10=
EXTT11=
EXTT12=
EXTT13=
EXTT14=
EXTT15=
PLAYORDER=
